# xmcd
#
# Track frame offsets: 
#        150
#        11695
#        34373
#        75294
#        97825
#        115301
#        132946
#        158687
#        170703
#        186983
#        215580
#        239754
#
# Disc length: 3649 seconds
#
# Revision: 0
# Processed by: cddbd v1.5.2PL0 Copyright (c) Steve Scherf et al.
# Submitted via: ExactAudioCopyFreeDBPlugin 1.0
#
DISCID=9f0e3f0c
DTITLE=Louis Winsberg - Camino
DYEAR=1990
DGENRE=Jazz
TTITLE0=Cora Cor
TTITLE1=Taormina
TTITLE2=Philou
TTITLE3=TGV
TTITLE4=Lettre a Vincent
TTITLE5=Lundin a la Repet
TTITLE6=Amusette
TTITLE7=Bout D' Chou
TTITLE8=Les Feuilles Mortes
TTITLE9=Zoolou
TTITLE10=C'est Pire a L'envers
TTITLE11=Vadi
EXTD=
EXTT0=
EXTT1=
EXTT2=
EXTT3=
EXTT4=
EXTT5=
EXTT6=
EXTT7=
EXTT8=
EXTT9=
EXTT10=
EXTT11=
PLAYORDER=
